REM DIRINDEX 1\2,1\3,1\4,1\5\6,1\5\7,1\8
REM DIRNAME cjc115,folder01,folder02,folder03,folder04,folder05,folder06,folder07
TITLE ""
FILE "049 【049】Unit3 (0553 shrug_0564 corporation).mp3" MP3
  TRACK 01 AUDIO
    TITLE "0:"
    INDEX 01 00:00:00
  TRACK 02 AUDIO
    TITLE "2:cjc115_1888"
    INDEX 01 00:00:05
  TRACK 03 AUDIO
    TITLE "0:"
    INDEX 01 00:01:15
  TRACK 04 AUDIO
    TITLE "3:cjc115_1889"
    INDEX 01 00:01:24
  TRACK 05 AUDIO
    TITLE "0:"
    INDEX 01 00:02:71
  TRACK 06 AUDIO
    TITLE "4:cjc115_1890"
    INDEX 01 00:03:08
  TRACK 07 AUDIO
    TITLE "0:"
    INDEX 01 00:06:51
  TRACK 08 AUDIO
    TITLE "2:cjc115_1891"
    INDEX 01 00:07:60
  TRACK 09 AUDIO
    TITLE "0:"
    INDEX 01 00:08:72
  TRACK 10 AUDIO
    TITLE "3:cjc115_1892"
    INDEX 01 00:09:02
  TRACK 11 AUDIO
    TITLE "0:"
    INDEX 01 00:10:04
  TRACK 12 AUDIO
    TITLE "4:cjc115_1893"
    INDEX 01 00:10:19
  TRACK 13 AUDIO
    TITLE "0:"
    INDEX 01 00:13:73
  TRACK 14 AUDIO
    TITLE "2:cjc115_1894"
    INDEX 01 00:15:07
  TRACK 15 AUDIO
    TITLE "0:"
    INDEX 01 00:16:12
  TRACK 16 AUDIO
    TITLE "3:cjc115_1895"
    INDEX 01 00:16:20
  TRACK 17 AUDIO
    TITLE "0:"
    INDEX 01 00:18:48
  TRACK 18 AUDIO
    TITLE "4:cjc115_1896"
    INDEX 01 00:18:64
  TRACK 19 AUDIO
    TITLE "0:"
    INDEX 01 00:22:34
  TRACK 20 AUDIO
    TITLE "2:cjc115_1897"
    INDEX 01 00:23:40
  TRACK 21 AUDIO
    TITLE "0:"
    INDEX 01 00:24:59
  TRACK 22 AUDIO
    TITLE "3:cjc115_1898"
    INDEX 01 00:24:71
  TRACK 23 AUDIO
    TITLE "0:"
    INDEX 01 00:26:11
  TRACK 24 AUDIO
    TITLE "4:cjc115_1899"
    INDEX 01 00:26:20
  TRACK 25 AUDIO
    TITLE "0:"
    INDEX 01 00:30:22
  TRACK 26 AUDIO
    TITLE "2:cjc115_1900"
    INDEX 01 00:31:29
  TRACK 27 AUDIO
    TITLE "0:"
    INDEX 01 00:32:48
  TRACK 28 AUDIO
    TITLE "3:cjc115_1901"
    INDEX 01 00:32:54
  TRACK 29 AUDIO
    TITLE "0:"
    INDEX 01 00:33:58
  TRACK 30 AUDIO
    TITLE "4:cjc115_1902"
    INDEX 01 00:33:66
  TRACK 31 AUDIO
    TITLE "0:"
    INDEX 01 00:36:17
  TRACK 32 AUDIO
    TITLE "2:cjc115_1903"
    INDEX 01 00:37:28
  TRACK 33 AUDIO
    TITLE "0:"
    INDEX 01 00:38:53
  TRACK 34 AUDIO
    TITLE "3:cjc115_1904"
    INDEX 01 00:38:63
  TRACK 35 AUDIO
    TITLE "0:"
    INDEX 01 00:41:28
  TRACK 36 AUDIO
    TITLE "4:cjc115_1905"
    INDEX 01 00:41:36
  TRACK 37 AUDIO
    TITLE "0:"
    INDEX 01 00:45:14
  TRACK 38 AUDIO
    TITLE "2:cjc115_1906"
    INDEX 01 00:46:25
  TRACK 39 AUDIO
    TITLE "0:"
    INDEX 01 00:47:52
  TRACK 40 AUDIO
    TITLE "3:cjc115_1907"
    INDEX 01 00:47:56
  TRACK 41 AUDIO
    TITLE "0:"
    INDEX 01 00:49:65
  TRACK 42 AUDIO
    TITLE "4:cjc115_1908"
    INDEX 01 00:49:74
  TRACK 43 AUDIO
    TITLE "0:"
    INDEX 01 00:53:15
  TRACK 44 AUDIO
    TITLE "2:cjc115_1909"
    INDEX 01 00:54:23
  TRACK 45 AUDIO
    TITLE "0:"
    INDEX 01 00:55:48
  TRACK 46 AUDIO
    TITLE "3:cjc115_1910"
    INDEX 01 00:55:57
  TRACK 47 AUDIO
    TITLE "0:"
    INDEX 01 00:57:56
  TRACK 48 AUDIO
    TITLE "4:cjc115_1911"
    INDEX 01 00:57:64
  TRACK 49 AUDIO
    TITLE "0:"
    INDEX 01 01:02:16
  TRACK 50 AUDIO
    TITLE "2:cjc115_1912"
    INDEX 01 01:03:26
  TRACK 51 AUDIO
    TITLE "0:"
    INDEX 01 01:04:43
  TRACK 52 AUDIO
    TITLE "3:cjc115_1913"
    INDEX 01 01:04:52
  TRACK 53 AUDIO
    TITLE "0:"
    INDEX 01 01:06:12
  TRACK 54 AUDIO
    TITLE "4:cjc115_1914"
    INDEX 01 01:06:22
  TRACK 55 AUDIO
    TITLE "0:"
    INDEX 01 01:09:69
  TRACK 56 AUDIO
    TITLE "2:cjc115_1915"
    INDEX 01 01:11:02
  TRACK 57 AUDIO
    TITLE "0:"
    INDEX 01 01:12:17
  TRACK 58 AUDIO
    TITLE "3:cjc115_1916"
    INDEX 01 01:12:26
  TRACK 59 AUDIO
    TITLE "0:"
    INDEX 01 01:14:33
  TRACK 60 AUDIO
    TITLE "4:cjc115_1917"
    INDEX 01 01:14:43
  TRACK 61 AUDIO
    TITLE "0:"
    INDEX 01 01:17:51
  TRACK 62 AUDIO
    TITLE "2:cjc115_1918"
    INDEX 01 01:18:60
  TRACK 63 AUDIO
    TITLE "0:"
    INDEX 01 01:19:68
  TRACK 64 AUDIO
    TITLE "3:cjc115_1919"
    INDEX 01 01:20:00
  TRACK 65 AUDIO
    TITLE "0:"
    INDEX 01 01:21:14
  TRACK 66 AUDIO
    TITLE "4:cjc115_1920"
    INDEX 01 01:21:25
  TRACK 67 AUDIO
    TITLE "0:"
    INDEX 01 01:24:04
  TRACK 68 AUDIO
    TITLE "2:cjc115_1921"
    INDEX 01 01:25:11
  TRACK 69 AUDIO
    TITLE "0:"
    INDEX 01 01:26:40
  TRACK 70 AUDIO
    TITLE "3:cjc115_1922"
    INDEX 01 01:26:48
  TRACK 71 AUDIO
    TITLE "0:"
    INDEX 01 01:27:44
  TRACK 72 AUDIO
    TITLE "4:cjc115_1923"
    INDEX 01 01:27:53
  TRACK 73 AUDIO
    TITLE "0:"
    INDEX 01 01:31:34
